<?xml version="1.0" encoding="UTF-8" ?>
<!DOCTYPE svg PUBLIC "-//W3C//DTD SVG 1.1//EN" "http://www.w3.org/Graphics/SVG/1.1/DTD/svg11.dtd">
<svg width="513pt" height="100pt" viewBox="0 0 513 100" version="1.1" xmlns="http://www.w3.org/2000/svg">
<g id="#016ec6ff">
<path fill="#016ec6" opacity="1.00" d=" M 210.23 0.00 L 506.10 0.00 C 509.37 0.91 511.84 3.42 513.00 6.57 L 513.00 47.34 C 500.94 47.37 488.87 47.36 476.81 47.35 C 476.76 39.91 476.90 32.47 476.78 25.03 C 477.10 20.94 472.70 18.70 469.15 18.86 C 397.76 18.81 326.37 18.87 254.98 18.83 C 251.73 18.88 248.43 18.57 245.22 19.25 C 242.60 19.81 240.23 22.16 240.43 24.98 C 240.30 32.44 240.46 39.90 240.40 47.37 C 227.88 47.34 215.37 47.38 202.85 47.34 C 202.90 34.56 202.74 21.77 202.91 8.99 C 202.85 4.67 206.08 0.92 210.23 0.00 Z" />
<path fill="#016ec6" opacity="1.00" d=" M 9.38 20.93 C 14.76 20.80 20.14 20.89 25.52 20.86 C 25.11 25.33 23.76 29.73 23.85 34.22 C 24.36 34.26 25.39 34.33 25.90 34.36 C 30.31 30.24 33.65 25.13 37.86 20.81 C 44.02 21.00 50.19 20.75 56.36 20.92 C 48.78 31.09 40.46 40.69 32.50 50.57 C 40.64 61.21 49.02 71.67 57.17 82.31 C 51.76 82.35 46.35 82.32 40.94 82.33 C 36.06 75.82 31.22 69.28 26.38 62.74 C 25.17 61.13 23.91 59.50 22.12 58.50 C 20.01 58.54 19.52 60.95 19.24 62.59 C 18.20 69.16 17.24 75.75 16.25 82.33 C 10.88 82.33 5.50 82.33 0.12 82.33 C 3.11 61.85 6.25 41.39 9.38 20.93 Z" />
<path fill="#016ec6" opacity="1.00" d=" M 72.38 20.96 C 77.76 20.77 83.13 20.90 88.51 20.86 C 86.28 35.75 84.10 50.66 81.71 65.52 C 88.09 65.56 94.46 65.69 100.84 65.71 C 100.03 71.22 99.20 76.74 98.33 82.24 C 86.58 82.23 74.84 82.39 63.09 82.32 C 66.14 61.86 69.20 41.40 72.38 20.96 Z" />
<path fill="#016ec6" opacity="1.00" d=" M 136.34 82.14 C 139.43 61.67 142.48 41.19 145.65 20.73 C 151.03 20.77 156.41 20.75 161.79 20.74 C 161.30 24.81 160.29 28.83 160.14 32.94 C 159.81 35.35 162.43 34.40 163.23 33.20 C 166.92 29.19 170.26 24.88 173.82 20.77 C 180.19 20.73 186.56 20.75 192.93 20.75 C 184.83 30.60 176.85 40.55 168.76 50.41 C 177.00 61.00 185.29 71.54 193.50 82.14 C 188.62 82.11 183.75 82.20 178.87 82.14 C 177.45 82.46 176.52 81.32 175.82 80.32 C 171.13 73.95 166.42 67.60 161.68 61.27 C 160.49 59.90 159.11 57.74 156.97 58.64 C 156.16 59.63 155.69 60.76 155.56 62.03 C 154.43 68.74 153.69 75.51 152.38 82.19 C 147.04 82.10 141.69 82.15 136.34 82.14 Z" />
<path fill="#016ec6" opacity="1.00" d=" M 254.13 38.13 C 256.41 38.09 258.69 38.07 260.98 38.07 C 260.02 47.62 258.69 57.13 257.51 66.65 C 255.19 66.64 252.87 66.64 250.56 66.63 C 251.87 57.14 252.95 47.63 254.13 38.13 Z" />
<path fill="#016ec6" opacity="1.00" d=" M 266.13 38.08 C 268.39 38.16 271.12 37.26 273.12 38.48 C 274.89 43.33 275.68 48.50 277.80 53.23 C 278.30 48.18 278.85 43.14 279.50 38.11 C 281.83 38.08 284.16 38.08 286.50 38.12 C 285.15 47.61 284.22 57.15 282.92 66.64 C 280.68 66.64 278.43 66.74 276.20 66.55 C 274.27 61.68 273.60 56.40 271.51 51.59 C 270.54 56.57 270.32 61.65 269.54 66.65 C 267.22 66.64 264.90 66.64 262.59 66.63 C 263.91 57.13 264.89 47.59 266.13 38.08 Z" />
<path fill="#016ec6" opacity="1.00" d=" M 291.54 38.37 C 294.46 37.30 298.40 37.94 301.58 38.64 C 312.37 42.64 312.25 60.48 302.04 65.16 C 297.75 67.47 292.70 66.43 288.05 66.63 C 289.14 57.20 290.10 47.74 291.54 38.37 M 295.79 58.52 C 297.65 58.46 299.95 58.69 301.09 56.83 C 302.96 52.92 302.92 46.75 297.53 45.90 C 296.67 50.07 296.42 54.32 295.79 58.52 Z" />
<path fill="#016ec6" opacity="1.00" d=" M 343.74 48.91 C 344.23 43.66 348.32 38.24 353.95 38.20 C 357.88 37.85 361.18 40.37 363.85 42.93 C 362.04 44.48 360.23 46.04 358.42 47.59 C 356.51 46.34 353.69 44.41 351.75 46.67 C 349.62 49.76 348.71 54.49 351.01 57.75 C 352.29 59.38 354.46 59.35 356.34 59.46 C 356.37 58.57 356.43 56.81 356.46 55.93 C 355.77 55.87 354.39 55.76 353.71 55.71 C 353.85 53.95 354.03 52.20 354.20 50.44 C 357.17 50.49 360.15 50.58 363.13 50.69 C 362.60 54.73 363.12 58.96 361.94 62.89 C 358.31 68.48 348.31 67.83 345.16 62.00 C 342.80 58.07 343.53 53.26 343.74 48.91 Z" />
<path fill="#016ec6" opacity="1.00" d=" M 366.04 66.64 C 367.20 57.08 368.04 47.43 369.77 37.97 C 374.87 38.01 381.19 37.04 385.05 41.19 C 387.75 46.03 386.62 53.69 380.81 55.70 C 382.05 59.30 383.15 62.95 384.40 66.55 C 382.28 66.61 380.16 66.64 378.05 66.66 C 376.76 63.05 376.15 59.15 374.15 55.83 C 373.68 59.44 373.41 63.07 372.81 66.66 C 370.55 66.64 368.29 66.64 366.04 66.64 M 374.67 51.63 C 377.06 51.87 380.35 51.11 379.92 48.01 C 380.55 45.24 377.85 44.22 375.77 43.71 C 375.38 46.35 375.02 48.99 374.67 51.63 Z" />
<path fill="#016ec6" opacity="1.00" d=" M 398.45 38.49 C 401.78 37.53 406.00 37.69 408.26 40.71 C 412.96 46.43 412.10 55.25 408.02 61.07 C 405.65 64.42 401.40 67.27 397.16 65.89 C 392.28 64.34 389.93 58.81 390.10 54.02 C 389.84 47.91 392.76 41.24 398.45 38.49 M 399.28 47.28 C 395.96 49.55 395.51 55.90 399.78 57.39 C 403.35 57.35 405.20 53.17 404.56 50.06 C 404.38 47.62 401.40 45.42 399.28 47.28 Z" />
<path fill="#016ec6" opacity="1.00" d=" M 435.35 38.03 C 437.67 38.06 440.00 38.11 442.33 38.22 C 440.81 47.66 439.98 57.20 438.60 66.66 C 436.29 66.64 433.98 66.63 431.68 66.60 C 433.03 57.10 434.00 47.54 435.35 38.03 Z" />
<path fill="#016ec6" opacity="1.00" d=" M 447.14 38.12 C 452.37 38.34 458.97 36.77 462.79 41.37 C 465.20 46.22 464.25 53.72 458.45 55.68 C 459.72 59.30 460.85 62.96 461.99 66.62 C 459.89 66.63 457.80 66.64 455.72 66.65 C 454.51 62.99 453.48 59.28 452.15 55.66 C 451.18 59.25 451.04 62.99 450.51 66.65 C 448.19 66.64 445.88 66.64 443.57 66.64 C 444.84 57.15 445.93 47.63 447.14 38.12 M 453.44 43.71 C 452.99 46.36 452.64 49.03 452.41 51.70 C 454.77 51.83 457.91 51.01 457.65 48.04 C 458.21 45.36 455.50 44.32 453.44 43.71 Z" />
<path fill="#016ec6" opacity="1.00" d=" M 114.58 39.34 C 119.97 39.35 125.36 39.34 130.76 39.34 C 128.60 53.67 126.38 67.99 124.26 82.33 C 118.89 82.34 113.53 82.30 108.16 82.37 C 110.09 67.99 112.46 53.68 114.58 39.34 Z" />
<path fill="#016ec6" opacity="1.00" d=" M 419.38 39.45 C 423.30 37.34 428.13 38.25 431.47 41.03 C 430.65 42.93 429.81 44.82 428.97 46.71 C 427.25 45.37 424.09 42.83 422.74 45.92 C 422.60 48.82 426.87 48.70 428.43 50.63 C 432.04 55.17 430.88 63.78 424.95 65.83 C 421.39 67.03 416.82 66.66 414.29 63.60 C 411.48 61.42 415.00 58.47 415.86 56.15 C 417.74 58.17 420.36 60.54 423.36 59.22 C 424.64 56.00 420.47 55.07 418.69 53.26 C 413.93 50.16 414.39 42.08 419.38 39.45 Z" />
</g>
<g id="#cc292aff">
<path fill="#cc292a" opacity="1.00" d=" M 117.36 20.94 C 122.74 20.79 128.13 20.90 133.51 20.85 C 132.73 26.12 132.04 31.41 131.13 36.67 C 125.77 37.11 120.37 36.75 115.00 36.82 C 115.74 31.52 116.50 26.22 117.36 20.94 Z" />
<path fill="#cc292a" opacity="1.00" d=" M 322.60 36.87 C 332.08 34.14 342.70 42.10 342.47 52.02 C 343.07 61.22 334.26 69.37 325.17 68.35 C 316.72 67.77 309.67 59.61 310.62 51.13 C 310.99 44.44 316.16 38.51 322.60 36.87 M 322.28 38.43 C 314.96 40.46 310.26 48.85 312.43 56.14 C 314.28 64.09 323.63 69.24 331.29 66.26 C 338.54 63.99 342.92 55.51 340.59 48.29 C 338.60 40.68 329.74 35.88 322.28 38.43 Z" />
<path fill="#cc292a" opacity="1.00" d=" M 323.47 41.60 C 330.54 39.21 338.67 45.60 337.92 53.03 C 337.94 60.14 330.10 65.63 323.39 63.37 C 317.13 61.64 313.43 54.02 316.21 48.09 C 317.48 44.96 320.25 42.57 323.47 41.60 M 323.19 43.19 C 316.03 45.46 314.42 56.03 320.55 60.36 C 326.14 65.12 335.77 61.20 336.47 53.92 C 337.83 46.81 329.89 40.30 323.19 43.19 Z" />
<path fill="#cc292a" opacity="1.00" d=" M 324.32 46.36 C 328.46 44.55 333.59 48.50 332.92 52.97 C 332.79 57.89 326.14 60.78 322.50 57.39 C 318.60 54.57 319.74 47.81 324.32 46.36 M 325.44 47.45 C 321.98 48.09 320.23 52.73 322.53 55.45 C 324.51 58.35 329.32 58.00 330.93 54.90 C 333.23 51.37 329.48 46.32 325.44 47.45 Z" />
<path fill="#cc292a" opacity="1.00" d=" M 202.85 53.69 C 215.36 53.64 227.88 53.69 240.40 53.66 C 240.41 60.46 240.41 67.25 240.37 74.05 C 240.49 75.92 240.14 78.12 241.54 79.62 C 243.48 82.21 247.00 82.34 249.96 82.31 C 319.97 82.24 389.98 82.30 460.00 82.28 C 463.66 82.23 467.33 82.48 470.98 82.14 C 474.03 81.88 477.10 79.34 476.79 76.06 C 476.89 68.60 476.76 61.14 476.81 53.68 C 488.88 53.66 500.94 53.67 513.00 53.68 L 513.00 95.13 L 512.99 93.25 C 511.79 96.50 509.19 98.76 506.01 99.99 L 507.48 100.00 L 210.34 100.00 C 206.43 98.77 202.96 95.47 202.94 91.16 C 202.70 78.67 202.92 66.18 202.85 53.69 Z" />
</g>
</svg>
