<?xml version="1.0" encoding="UTF-8" ?>
<!DOCTYPE svg PUBLIC "-//W3C//DTD SVG 1.1//EN" "http://www.w3.org/Graphics/SVG/1.1/DTD/svg11.dtd">
<svg width="862pt" height="294pt" viewBox="0 0 862 294" version="1.1" xmlns="http://www.w3.org/2000/svg">
<g id="#ffffffff">
<path fill="#ffffff" opacity="1.00" d=" M 0.00 0.00 L 862.00 0.00 L 862.00 294.00 L 0.00 294.00 L 0.00 0.00 M 9.49 22.83 C 7.89 26.68 8.33 30.92 8.29 34.98 C 8.29 69.62 8.31 104.26 8.28 138.90 C 42.33 138.88 76.38 139.08 110.43 138.80 C 110.32 119.52 110.40 100.23 110.38 80.95 C 110.11 72.03 117.52 64.68 125.85 62.76 C 142.24 62.34 158.65 62.68 175.05 62.57 C 359.64 62.58 544.23 62.55 728.82 62.58 C 736.42 62.29 743.97 66.75 747.24 73.63 C 749.27 78.45 749.30 83.82 749.24 88.96 C 749.12 98.61 749.45 108.28 749.06 117.93 C 749.42 124.92 749.16 131.93 749.22 138.92 C 783.10 138.93 816.98 138.93 850.86 138.93 C 850.85 102.25 850.87 65.57 850.85 28.89 C 850.70 20.02 843.66 11.90 834.90 10.46 C 829.68 9.19 824.33 10.50 819.05 9.99 C 795.69 9.92 772.32 9.97 748.96 9.95 C 739.64 10.39 730.33 9.91 721.01 9.91 C 701.69 10.32 682.36 9.47 663.04 10.13 C 653.69 9.37 644.33 10.39 634.98 9.90 C 626.32 10.02 617.66 9.68 609.01 10.12 C 580.99 9.70 552.97 10.10 524.93 9.84 C 508.64 10.45 492.35 9.42 476.07 10.05 C 423.02 10.00 370.01 9.89 316.95 9.87 C 309.65 10.54 302.34 9.52 295.03 10.10 C 285.69 9.47 276.35 10.28 267.00 10.02 C 196.98 9.93 126.97 9.98 56.91 9.91 C 46.62 10.46 36.29 9.32 26.01 10.17 C 18.70 10.84 12.04 15.94 9.49 22.83 M 325.85 105.68 C 315.16 110.77 306.25 119.92 302.12 131.08 C 301.84 132.21 301.55 133.34 301.27 134.46 L 300.42 134.54 C 300.42 135.19 300.43 136.50 300.43 137.16 C 299.30 128.96 296.26 120.63 289.99 114.95 C 285.29 110.26 278.42 108.75 272.00 108.46 C 264.63 108.41 257.25 108.40 249.88 108.49 C 249.58 115.09 248.13 121.56 247.43 128.11 C 244.76 147.27 242.04 166.41 239.43 185.58 C 251.92 185.08 264.87 187.15 276.90 182.87 C 285.72 179.73 292.36 172.40 296.29 164.09 C 297.58 160.48 299.17 156.92 299.72 153.09 C 301.48 164.02 306.71 174.60 315.25 181.79 C 324.76 189.86 337.62 193.80 350.02 192.31 C 369.08 190.31 385.87 174.90 389.22 156.01 C 390.07 151.63 388.54 147.10 389.73 142.80 C 389.56 151.98 388.75 161.58 392.82 170.15 C 396.89 179.75 406.19 187.68 416.99 187.62 C 426.52 188.32 435.62 183.76 442.52 177.50 C 443.83 176.40 443.70 174.54 444.09 173.02 C 445.59 162.02 447.02 151.01 448.69 140.03 C 439.30 139.84 429.92 139.93 420.53 139.97 C 419.81 145.81 418.70 151.60 418.20 157.46 C 420.66 157.46 423.11 157.46 425.57 157.46 C 425.43 159.94 424.95 162.37 424.39 164.78 C 421.30 164.75 417.67 165.19 415.38 162.64 C 410.15 158.27 409.93 150.76 410.71 144.52 C 411.62 139.08 414.20 132.87 419.89 131.03 C 423.81 129.62 428.45 131.39 430.13 135.26 C 430.47 135.37 431.14 135.59 431.47 135.70 C 437.55 132.68 443.68 129.76 449.74 126.69 C 447.10 117.44 439.46 109.14 429.81 107.18 C 420.54 105.03 410.20 107.69 403.28 114.27 C 395.79 121.26 391.75 131.17 389.95 141.09 C 387.70 125.71 377.55 111.42 363.01 105.45 C 351.33 100.04 337.48 100.26 325.85 105.68 M 601.33 108.22 C 591.59 112.07 586.39 122.96 586.57 133.02 C 586.18 139.77 588.31 146.88 593.52 151.42 C 596.86 155.02 601.65 156.61 605.49 159.52 C 607.41 160.84 605.99 162.89 605.44 164.54 C 603.60 164.48 601.76 164.42 599.94 164.34 C 594.70 162.00 591.14 157.50 587.81 153.03 C 584.16 159.67 580.89 166.50 577.29 173.16 C 584.50 182.29 596.09 189.43 608.09 187.11 C 617.43 185.60 624.32 177.76 627.28 169.14 C 629.29 160.20 629.78 149.23 622.67 142.33 C 618.93 138.00 613.22 136.29 609.16 132.36 C 609.18 131.01 609.21 129.65 609.26 128.30 C 612.73 126.47 616.42 128.68 618.98 131.05 C 620.61 132.42 621.84 134.51 624.08 134.93 C 626.29 129.17 628.67 123.45 631.50 117.96 C 631.51 117.20 631.49 116.44 631.45 115.69 C 624.03 107.57 611.70 104.05 601.33 108.22 M 543.92 106.77 C 536.09 108.20 528.90 112.81 524.35 119.34 C 517.72 128.46 514.97 139.85 514.73 150.98 C 514.93 161.78 517.82 173.40 526.03 180.97 C 532.83 187.48 543.16 188.98 552.04 186.71 C 560.26 184.52 566.94 178.38 571.16 171.14 C 576.67 162.17 578.49 151.42 578.41 141.03 C 578.06 131.70 575.46 122.07 568.98 115.09 C 562.89 108.06 552.94 105.22 543.92 106.77 M 148.60 108.49 C 145.24 134.21 141.20 159.83 138.04 185.57 C 145.41 185.47 152.79 185.80 160.16 185.36 C 160.26 178.12 162.01 171.06 162.71 163.87 C 165.47 145.42 167.69 126.90 170.63 108.48 C 163.29 108.41 155.94 108.39 148.60 108.49 M 181.30 108.39 C 177.55 134.09 174.12 159.85 170.41 185.55 C 177.67 185.57 184.94 185.60 192.21 185.53 C 193.79 172.80 195.89 160.14 197.00 147.35 C 200.60 160.07 203.70 172.93 207.48 185.60 C 214.73 185.48 222.00 185.71 229.25 185.45 C 229.40 182.63 229.70 179.82 230.20 177.04 C 233.36 154.17 236.71 131.33 239.78 108.45 C 232.65 108.41 225.53 108.47 218.40 108.41 C 216.23 121.20 214.73 134.10 212.91 146.95 C 210.12 133.97 206.21 121.27 202.89 108.42 C 195.69 108.42 188.49 108.48 181.30 108.39 M 462.04 108.42 C 458.47 134.14 454.76 159.84 451.36 185.57 C 458.39 185.59 465.42 185.54 472.46 185.59 C 473.74 177.29 474.73 168.95 476.04 160.66 C 476.79 161.59 477.28 162.66 477.50 163.85 C 479.17 171.09 480.64 178.39 482.49 185.60 C 489.63 185.54 496.77 185.59 503.91 185.57 C 502.50 175.42 498.20 165.91 496.32 155.85 C 500.83 154.37 504.79 151.26 507.02 147.03 C 510.74 139.74 511.35 130.97 509.32 123.09 C 507.71 117.00 502.80 112.28 496.99 110.11 C 494.04 109.34 491.10 108.41 488.02 108.45 C 479.36 108.38 470.70 108.47 462.04 108.42 M 640.52 108.42 C 638.11 123.92 636.21 139.50 633.88 155.01 C 632.73 165.21 630.56 175.30 630.12 185.57 C 637.23 185.56 644.35 185.60 651.47 185.55 C 655.05 159.84 658.58 134.14 662.11 108.43 C 654.91 108.44 647.71 108.44 640.52 108.42 M 662.21 185.56 C 669.25 185.58 676.30 185.57 683.35 185.56 C 684.62 177.81 685.70 170.02 686.62 162.22 L 688.20 162.29 C 689.40 170.06 692.02 177.56 692.92 185.38 C 700.27 185.77 707.64 185.49 715.01 185.57 C 713.21 175.48 709.38 165.88 707.22 155.87 C 714.29 153.80 719.04 147.17 720.39 140.15 C 721.89 132.61 721.90 124.07 717.52 117.43 C 713.23 111.11 705.31 108.50 697.97 108.43 C 689.57 108.45 681.18 108.39 672.79 108.48 C 669.39 134.19 665.56 159.84 662.21 185.56 M 8.34 155.23 C 8.37 191.84 8.34 228.45 8.35 265.06 C 8.34 271.35 11.97 277.35 17.19 280.75 C 22.10 284.07 28.29 284.35 34.02 284.24 C 300.03 284.18 566.05 284.29 832.06 284.19 C 841.87 283.47 850.87 275.13 850.82 265.03 C 850.90 228.42 850.83 191.81 850.86 155.20 C 816.82 155.31 782.78 154.98 748.75 155.37 C 748.84 174.57 748.81 193.77 748.77 212.98 C 749.18 220.24 744.16 226.70 737.91 229.83 C 731.91 232.36 725.32 231.38 719.01 231.57 C 522.71 231.55 326.42 231.60 130.12 231.55 C 120.00 232.09 109.89 223.37 110.37 212.95 C 110.40 193.74 110.31 174.52 110.42 155.31 C 76.39 155.07 42.36 155.23 8.34 155.23 Z" />
<path fill="#ffffff" opacity="1.00" d=" M 340.82 108.73 C 351.04 107.65 361.46 111.13 369.42 117.53 C 377.99 124.77 383.16 135.84 383.40 147.05 C 383.26 162.01 373.78 176.19 360.19 182.36 C 350.08 186.66 338.12 186.79 328.24 181.76 C 319.12 177.65 312.24 169.49 308.80 160.19 C 308.48 159.16 308.15 158.14 307.82 157.12 C 304.94 146.35 306.71 134.30 313.22 125.17 C 317.83 119.04 323.86 113.81 331.12 111.13 C 334.27 110.00 337.55 109.39 340.82 108.73 M 336.91 115.80 C 335.88 116.14 334.86 116.48 333.84 116.81 C 327.05 119.38 321.06 124.09 317.30 130.34 C 310.21 141.83 311.62 157.53 320.22 167.84 C 326.83 175.93 337.63 180.12 347.98 179.21 C 349.66 178.80 351.37 178.50 353.09 178.25 C 354.36 177.77 355.64 177.32 356.93 176.87 C 369.29 171.82 377.98 158.58 376.92 145.15 C 376.38 134.51 370.03 124.42 360.80 119.16 C 353.65 114.99 344.91 114.15 336.91 115.80 Z" />
<path fill="#ffffff" opacity="1.00" d=" M 324.48 132.42 C 330.33 124.00 341.33 120.56 351.16 122.71 C 352.17 123.08 353.18 123.44 354.20 123.78 C 360.23 126.34 365.18 131.13 367.91 137.08 C 368.25 138.07 368.62 139.05 368.99 140.04 C 370.04 144.58 370.01 149.42 369.03 153.97 C 368.65 154.96 368.28 155.95 367.93 156.95 C 363.45 166.89 352.08 173.93 341.15 171.88 C 334.03 170.83 327.28 166.66 323.64 160.38 C 318.41 152.01 318.42 140.37 324.48 132.42 M 326.20 145.93 C 325.15 156.00 333.76 165.87 343.99 165.69 C 351.39 166.50 358.30 161.76 361.70 155.43 C 364.12 150.61 364.09 144.83 362.34 139.81 C 359.30 133.12 352.48 128.09 344.98 128.33 C 335.34 127.88 326.11 136.14 326.20 145.93 Z" />
<path fill="#ffffff" opacity="1.00" d=" M 480.59 127.64 C 483.37 127.64 486.08 128.34 488.36 129.97 C 488.63 133.26 489.69 137.41 487.04 140.03 C 484.83 142.36 481.37 142.19 478.43 142.58 C 479.23 137.61 479.84 132.62 480.59 127.64 Z" />
<path fill="#ffffff" opacity="1.00" d=" M 691.63 127.61 C 695.15 127.61 700.35 128.82 699.76 133.42 C 699.97 133.51 700.37 133.69 700.58 133.78 C 699.38 135.75 699.74 138.43 698.00 140.08 C 695.75 142.37 692.26 142.14 689.34 142.60 C 690.05 137.59 690.90 132.61 691.63 127.61 Z" />
<path fill="#ffffff" opacity="1.00" d=" M 268.25 131.60 C 272.71 131.87 276.95 134.68 278.04 139.17 C 279.65 145.77 278.85 153.78 273.65 158.65 C 271.13 161.13 267.53 161.66 264.24 162.44 C 265.21 152.12 266.96 141.88 268.25 131.60 Z" />
<path fill="#ffffff" opacity="1.00" d=" M 541.52 134.63 C 544.93 131.61 550.72 131.67 553.59 135.40 C 557.74 139.60 556.67 145.89 556.38 151.21 C 554.56 155.81 551.62 161.46 545.93 161.49 C 541.25 162.06 537.61 157.77 536.64 153.58 C 535.26 147.06 536.23 139.22 541.52 134.63 Z" />
<path fill="#ffffff" opacity="1.00" d=" M 341.51 135.77 C 347.78 133.67 354.26 137.96 356.42 143.85 C 356.83 147.63 356.57 151.76 353.68 154.57 C 348.93 160.85 337.84 159.74 334.45 152.63 C 330.82 146.38 334.47 137.52 341.51 135.77 Z" />
</g>
<g id="#0079c2ff">
<path fill="#0079c2" opacity="1.00" d=" M 9.49 22.83 C 12.04 15.94 18.70 10.84 26.01 10.17 C 36.29 9.32 46.62 10.46 56.91 9.91 C 126.97 9.98 196.98 9.93 267.00 10.02 C 276.35 10.28 285.69 9.47 295.03 10.10 C 302.34 9.52 309.65 10.54 316.95 9.87 C 370.01 9.89 423.02 10.00 476.07 10.05 C 492.35 9.42 508.64 10.45 524.93 9.84 C 552.97 10.10 580.99 9.70 609.01 10.12 C 617.66 9.68 626.32 10.02 634.98 9.90 C 644.33 10.39 653.69 9.37 663.04 10.13 C 682.36 9.47 701.69 10.32 721.01 9.91 C 730.33 9.91 739.64 10.39 748.96 9.95 C 772.32 9.97 795.69 9.92 819.05 9.99 C 824.33 10.50 829.68 9.19 834.90 10.46 C 843.66 11.90 850.70 20.02 850.85 28.89 C 850.87 65.57 850.85 102.25 850.86 138.93 C 816.98 138.93 783.10 138.93 749.22 138.92 C 749.16 131.93 749.42 124.92 749.06 117.93 C 749.45 108.28 749.12 98.61 749.24 88.96 C 749.30 83.82 749.27 78.45 747.24 73.63 C 743.97 66.75 736.42 62.29 728.82 62.58 C 544.23 62.55 359.64 62.58 175.05 62.57 C 158.65 62.68 142.24 62.34 125.85 62.76 C 117.52 64.68 110.11 72.03 110.38 80.95 C 110.40 100.23 110.32 119.52 110.43 138.80 C 76.38 139.08 42.33 138.88 8.28 138.90 C 8.31 104.26 8.29 69.62 8.29 34.98 C 8.33 30.92 7.89 26.68 9.49 22.83 Z" />
<path fill="#0079c2" opacity="1.00" d=" M 403.28 114.27 C 410.20 107.69 420.54 105.03 429.81 107.18 C 439.46 109.14 447.10 117.44 449.74 126.69 C 443.68 129.76 437.55 132.68 431.47 135.70 C 431.14 135.59 430.47 135.37 430.13 135.26 C 428.45 131.39 423.81 129.62 419.89 131.03 C 414.20 132.87 411.62 139.08 410.71 144.52 C 409.93 150.76 410.15 158.27 415.38 162.64 C 417.67 165.19 421.30 164.75 424.39 164.78 C 424.95 162.37 425.43 159.94 425.57 157.46 C 423.11 157.46 420.66 157.46 418.20 157.46 C 418.70 151.60 419.81 145.81 420.53 139.97 C 429.92 139.93 439.30 139.84 448.69 140.03 C 447.02 151.01 445.59 162.02 444.09 173.02 C 443.70 174.54 443.83 176.40 442.52 177.50 C 435.62 183.76 426.52 188.32 416.99 187.62 C 406.19 187.68 396.89 179.75 392.82 170.15 C 388.75 161.58 389.56 151.98 389.73 142.80 C 389.79 142.37 389.90 141.52 389.95 141.09 C 391.75 131.17 395.79 121.26 403.28 114.27 Z" />
<path fill="#0079c2" opacity="1.00" d=" M 601.33 108.22 C 611.70 104.05 624.03 107.57 631.45 115.69 C 631.49 116.44 631.51 117.20 631.50 117.96 C 628.67 123.45 626.29 129.17 624.08 134.93 C 621.84 134.51 620.61 132.42 618.98 131.05 C 616.42 128.68 612.73 126.47 609.26 128.30 C 609.21 129.65 609.18 131.01 609.16 132.36 C 613.22 136.29 618.93 138.00 622.67 142.33 C 629.78 149.23 629.29 160.20 627.28 169.14 C 624.32 177.76 617.43 185.60 608.09 187.11 C 596.09 189.43 584.50 182.29 577.29 173.16 C 580.89 166.50 584.16 159.67 587.81 153.03 C 591.14 157.50 594.70 162.00 599.94 164.34 C 601.76 164.42 603.60 164.48 605.44 164.54 C 605.99 162.89 607.41 160.84 605.49 159.52 C 601.65 156.61 596.86 155.02 593.52 151.42 C 588.31 146.88 586.18 139.77 586.57 133.02 C 586.39 122.96 591.59 112.07 601.33 108.22 Z" />
<path fill="#0079c2" opacity="1.00" d=" M 543.92 106.77 C 552.94 105.22 562.89 108.06 568.98 115.09 C 575.46 122.07 578.06 131.70 578.41 141.03 C 578.49 151.42 576.67 162.17 571.16 171.14 C 566.94 178.38 560.26 184.52 552.04 186.71 C 543.16 188.98 532.83 187.48 526.03 180.97 C 517.82 173.40 514.93 161.78 514.73 150.98 C 514.97 139.85 517.72 128.46 524.35 119.34 C 528.90 112.81 536.09 108.20 543.92 106.77 M 541.52 134.63 C 536.23 139.22 535.26 147.06 536.64 153.58 C 537.61 157.77 541.25 162.06 545.93 161.49 C 551.62 161.46 554.56 155.81 556.38 151.21 C 556.67 145.89 557.74 139.60 553.59 135.40 C 550.72 131.67 544.93 131.61 541.52 134.63 Z" />
<path fill="#0079c2" opacity="1.00" d=" M 148.60 108.49 C 155.94 108.39 163.29 108.41 170.63 108.48 C 167.69 126.90 165.47 145.42 162.71 163.87 C 162.01 171.06 160.26 178.12 160.16 185.36 C 152.79 185.80 145.41 185.47 138.04 185.57 C 141.20 159.83 145.24 134.21 148.60 108.49 Z" />
<path fill="#0079c2" opacity="1.00" d=" M 181.30 108.39 C 188.49 108.48 195.69 108.42 202.89 108.42 C 206.21 121.27 210.12 133.97 212.91 146.95 C 214.73 134.10 216.23 121.20 218.40 108.41 C 225.53 108.47 232.65 108.41 239.78 108.45 C 236.71 131.33 233.36 154.17 230.20 177.04 C 229.70 179.82 229.40 182.63 229.25 185.45 C 222.00 185.71 214.73 185.48 207.48 185.60 C 203.70 172.93 200.60 160.07 197.00 147.35 C 195.89 160.14 193.79 172.80 192.21 185.53 C 184.94 185.60 177.67 185.57 170.41 185.55 C 174.12 159.85 177.55 134.09 181.30 108.39 Z" />
<path fill="#0079c2" opacity="1.00" d=" M 462.04 108.42 C 470.70 108.47 479.36 108.38 488.02 108.45 C 491.10 108.41 494.04 109.34 496.99 110.11 C 502.80 112.28 507.71 117.00 509.32 123.09 C 511.35 130.97 510.74 139.74 507.02 147.03 C 504.79 151.26 500.83 154.37 496.32 155.85 C 498.20 165.91 502.50 175.42 503.91 185.57 C 496.77 185.59 489.63 185.54 482.49 185.60 C 480.64 178.39 479.17 171.09 477.50 163.85 C 477.28 162.66 476.79 161.59 476.04 160.66 C 474.73 168.95 473.74 177.29 472.46 185.59 C 465.42 185.54 458.39 185.59 451.36 185.57 C 454.76 159.84 458.47 134.14 462.04 108.42 M 480.59 127.64 C 479.84 132.62 479.23 137.61 478.43 142.58 C 481.37 142.19 484.83 142.36 487.04 140.03 C 489.69 137.41 488.63 133.26 488.36 129.97 C 486.08 128.34 483.37 127.64 480.59 127.64 Z" />
<path fill="#0079c2" opacity="1.00" d=" M 640.52 108.42 C 647.71 108.44 654.91 108.44 662.11 108.43 C 658.58 134.14 655.05 159.84 651.47 185.55 C 644.35 185.60 637.23 185.56 630.12 185.57 C 630.56 175.30 632.73 165.21 633.88 155.01 C 636.21 139.50 638.11 123.92 640.52 108.42 Z" />
<path fill="#0079c2" opacity="1.00" d=" M 249.88 108.49 C 257.25 108.40 264.63 108.41 272.00 108.46 C 278.42 108.75 285.29 110.26 289.99 114.95 C 296.26 120.63 299.30 128.96 300.43 137.16 C 300.80 142.48 300.44 147.82 299.72 153.09 C 299.17 156.92 297.58 160.48 296.29 164.09 C 292.36 172.40 285.72 179.73 276.90 182.87 C 264.87 187.15 251.92 185.08 239.43 185.58 C 242.04 166.41 244.76 147.27 247.43 128.11 C 248.13 121.56 249.58 115.09 249.88 108.49 M 268.25 131.60 C 266.96 141.88 265.21 152.12 264.24 162.44 C 267.53 161.66 271.13 161.13 273.65 158.65 C 278.85 153.78 279.65 145.77 278.04 139.17 C 276.95 134.68 272.71 131.87 268.25 131.60 Z" />
<path fill="#0079c2" opacity="1.00" d=" M 662.21 185.56 C 665.56 159.84 669.39 134.19 672.79 108.48 C 681.18 108.39 689.57 108.45 697.97 108.43 C 705.31 108.50 713.23 111.11 717.52 117.43 C 721.90 124.07 721.89 132.61 720.39 140.15 C 719.04 147.17 714.29 153.80 707.22 155.87 C 709.38 165.88 713.21 175.48 715.01 185.57 C 707.64 185.49 700.27 185.77 692.92 185.38 C 692.02 177.56 689.40 170.06 688.20 162.29 L 686.62 162.22 C 685.70 170.02 684.62 177.81 683.35 185.56 C 676.30 185.57 669.25 185.58 662.21 185.56 M 691.63 127.61 C 690.90 132.61 690.05 137.59 689.34 142.60 C 692.26 142.14 695.75 142.37 698.00 140.08 C 699.74 138.43 699.38 135.75 700.58 133.78 C 700.37 133.69 699.97 133.51 699.76 133.42 C 700.35 128.82 695.15 127.61 691.63 127.61 Z" />
</g>
<g id="#e51a23ff">
<path fill="#e51a23" opacity="1.00" d=" M 325.85 105.68 C 337.48 100.26 351.33 100.04 363.01 105.45 C 377.55 111.42 387.70 125.71 389.95 141.09 C 389.90 141.52 389.79 142.37 389.73 142.80 C 388.54 147.10 390.07 151.63 389.22 156.01 C 385.87 174.90 369.08 190.31 350.02 192.31 C 337.62 193.80 324.76 189.86 315.25 181.79 C 306.71 174.60 301.48 164.02 299.72 153.09 C 300.44 147.82 300.80 142.48 300.43 137.16 C 300.43 136.50 300.42 135.19 300.42 134.54 L 301.27 134.46 C 301.55 133.34 301.84 132.21 302.12 131.08 C 306.25 119.92 315.16 110.77 325.85 105.68 M 340.82 108.73 C 337.55 109.39 334.27 110.00 331.12 111.13 C 323.86 113.81 317.83 119.04 313.22 125.17 C 306.71 134.30 304.94 146.35 307.82 157.12 C 308.15 158.14 308.48 159.16 308.80 160.19 C 312.24 169.49 319.12 177.65 328.24 181.76 C 338.12 186.79 350.08 186.66 360.19 182.36 C 373.78 176.19 383.26 162.01 383.40 147.05 C 383.16 135.84 377.99 124.77 369.42 117.53 C 361.46 111.13 351.04 107.65 340.82 108.73 Z" />
<path fill="#e51a23" opacity="1.00" d=" M 336.91 115.80 C 344.91 114.15 353.65 114.99 360.80 119.16 C 370.03 124.42 376.38 134.51 376.92 145.15 C 377.98 158.58 369.29 171.82 356.93 176.87 C 355.64 177.32 354.36 177.77 353.09 178.25 C 351.37 178.50 349.66 178.80 347.98 179.21 C 337.63 180.12 326.83 175.93 320.22 167.84 C 311.62 157.53 310.21 141.83 317.30 130.34 C 321.06 124.09 327.05 119.38 333.84 116.81 C 334.86 116.48 335.88 116.14 336.91 115.80 M 324.48 132.42 C 318.42 140.37 318.41 152.01 323.64 160.38 C 327.28 166.66 334.03 170.83 341.15 171.88 C 352.08 173.93 363.45 166.89 367.93 156.95 C 368.28 155.95 368.65 154.96 369.03 153.97 C 370.01 149.42 370.04 144.58 368.99 140.04 C 368.62 139.05 368.25 138.07 367.91 137.08 C 365.18 131.13 360.23 126.34 354.20 123.78 C 353.18 123.44 352.17 123.08 351.16 122.71 C 341.33 120.56 330.33 124.00 324.48 132.42 Z" />
<path fill="#e51a23" opacity="1.00" d=" M 326.20 145.93 C 326.11 136.14 335.34 127.88 344.98 128.33 C 352.48 128.09 359.30 133.12 362.34 139.81 C 364.09 144.83 364.12 150.61 361.70 155.43 C 358.30 161.76 351.39 166.50 343.99 165.69 C 333.76 165.87 325.15 156.00 326.20 145.93 M 341.51 135.77 C 334.47 137.52 330.82 146.38 334.45 152.63 C 337.84 159.74 348.93 160.85 353.68 154.57 C 356.57 151.76 356.83 147.63 356.42 143.85 C 354.26 137.96 347.78 133.67 341.51 135.77 Z" />
<path fill="#e51a23" opacity="1.00" d=" M 8.34 155.23 C 42.36 155.23 76.39 155.07 110.42 155.31 C 110.31 174.52 110.40 193.74 110.37 212.95 C 109.89 223.37 120.00 232.09 130.12 231.55 C 326.42 231.60 522.71 231.55 719.01 231.57 C 725.32 231.38 731.91 232.36 737.91 229.83 C 744.16 226.70 749.18 220.24 748.77 212.98 C 748.81 193.77 748.84 174.57 748.75 155.37 C 782.78 154.98 816.82 155.31 850.86 155.20 C 850.83 191.81 850.90 228.42 850.82 265.03 C 850.87 275.13 841.87 283.47 832.06 284.19 C 566.05 284.29 300.03 284.18 34.02 284.24 C 28.29 284.35 22.10 284.07 17.19 280.75 C 11.97 277.35 8.34 271.35 8.35 265.06 C 8.34 228.45 8.37 191.84 8.34 155.23 Z" />
</g>
</svg>
